<?xml version="1.0" encoding="utf-8"?>
<!-- Generator: Adobe Illustrator 15.0.0, SVG Export Plug-In . SVG Version: 6.00 Build 0)  -->
<!DOCTYPE svg PUBLIC "-//W3C//DTD SVG 1.1//EN" "http://www.w3.org/Graphics/SVG/1.1/DTD/svg11.dtd">
<svg version="1.1" id="图层_1" xmlns="http://www.w3.org/2000/svg" xmlns:xlink="http://www.w3.org/1999/xlink" x="0px" y="0px"
	 width="478px" height="99.333px" viewBox="0 0 478 99.333" enable-background="new 0 0 478 99.333" xml:space="preserve">
<g>
	<path fill="#494949" d="M79.625,12.162l-9.712,75.687H50.226L44.262,46.1l-5.625,41.749H21.672l-9.395-75.687h14.945l4.177,34.94
		l5.737-34.94h18.737l4.528,34.94l5.601-34.94H79.625z"/>
	<path fill="#494949" d="M119.315,87.849H102.69V51.536h-4.645v36.313H81.419V12.162h16.625v30.19h4.645v-30.19h16.625
		L119.315,87.849L119.315,87.849z"/>
	<path fill="#494949" d="M167.662,87.849h-16.474l-2.806-20.32h-7.378l-2.839,20.32H121.69l12.434-75.687h21.081L167.662,87.849z
		 M147.042,57.025l-2.393-22.59l-2.265,22.59H147.042z"/>
	<path fill="#494949" d="M204.978,22.032h-9.29v65.817h-16.625V22.032h-9.29v-9.87h35.205V22.032L204.978,22.032z"/>
	<path fill="#494949" d="M351.126,12.162l-9.711,75.687h-19.688L315.764,46.1l-5.625,41.749h-16.965l-9.396-75.687h14.945
		l4.178,34.94l5.738-34.94h18.735l4.528,34.94l5.601-34.94H351.126z"/>
	<path fill="#494949" d="M385.698,87.849h-32.513V12.162h32.301v9.712h-15.676v20.479h14.146v9.185h-14.146V78.14h15.888V87.849z"/>
	<path fill="#494949" d="M388.178,87.849V12.162h20.748c4.516,0,8.538,1.223,12.066,3.668c3.528,2.446,5.293,6.202,5.293,11.269
		v45.813c0,4.715-1.649,8.383-4.948,11.004s-7.401,3.933-12.306,3.933H388.178z M409.555,74.122V25.836
		c0-2.642-1.584-3.962-4.75-3.962v56.264C407.971,78.137,409.555,76.799,409.555,74.122z"/>
	<path fill="#494949" d="M429.559,74.917V26.201c0-9.817,6.359-14.726,19.079-14.726c12.544,0,18.816,4.874,18.816,14.62v48.716
		c0,4.398-1.748,7.785-5.244,10.16c-3.496,2.376-8.056,3.563-13.678,3.563C435.883,88.536,429.559,83.997,429.559,74.917z
		 M451.251,75.709V24.143c0-1.513-0.896-2.27-2.692-2.27c-1.863,0-2.797,0.757-2.797,2.27v51.566c0,1.514,0.934,2.27,2.797,2.27
		C450.354,77.979,451.251,77.223,451.251,75.709z"/>
</g>
<g>
	<g>
		<path fill="#494949" d="M229.133,52.44l1.5-0.885l-5.633-6.4v10.169l0.663-0.277C226.771,53.842,228.168,52.995,229.133,52.44z"/>
		<path fill="#494949" d="M259.752,52.428c0.973,0.557,2.043,1.226,2.822,1.982L263,54.538V44.368l-5.684,6.679L259.752,52.428z"/>
		<path fill="#494949" d="M268.285,84.679c-0.451-0.449-1.078-0.347-1.67-0.347h-0.926c-0.295,0-0.357-0.442-0.582-0.668
			C264.88,83.438,265,82.813,265,82.517V63.663c0-1.969-0.73-3.963-1.785-5.789c-1.059-1.826-2.656-3.252-4.363-4.231l-12.754-6.681
			c-0.484-0.255-1.062-0.399-1.645-0.399s-1.148,0.144-1.631,0.399l-12.704,6.681c-1.707,0.979-3.349,2.405-4.405,4.231
			C224.657,59.7,224,61.694,224,63.663v18.854c0,0.297,0.043,0.922-0.183,1.147c-0.226,0.225-0.365,0.668-0.662,0.668h-0.924
			c-0.592,0-1.143-0.104-1.595,0.347c-0.451,0.452-0.637,0.715-0.637,1.307v0.692c0,0.296,0.073,0.342,0.299,0.566
			c0.226,0.226,0.481,0.088,0.777,0.088h46.694c0.297,0,0.631,0.139,0.854-0.088c0.225-0.227,0.376-0.271,0.376-0.566v-0.692
			C269,85.394,268.738,85.131,268.285,84.679z M236.483,75.668c-1.819,0-3.295-1.476-3.295-3.293c0-1.819,1.476-3.295,3.295-3.295
			s3.294,1.476,3.294,3.295C239.777,74.194,238.303,75.668,236.483,75.668z M252.688,75.055c-1.213,0-2.195-0.982-2.195-2.197
			c0-1.213,0.982-2.195,2.195-2.195s2.196,0.982,2.196,2.195C254.885,74.073,253.9,75.055,252.688,75.055z"/>
	</g>
</g>
</svg>
