<?xml version="1.0" encoding="utf-8"?>
<!-- Generator: Adobe Illustrator 15.0.0, SVG Export Plug-In . SVG Version: 6.00 Build 0)  -->
<!DOCTYPE svg PUBLIC "-//W3C//DTD SVG 1.1//EN" "http://www.w3.org/Graphics/SVG/1.1/DTD/svg11.dtd">
<svg version="1.1" id="图层_1" xmlns="http://www.w3.org/2000/svg" xmlns:xlink="http://www.w3.org/1999/xlink" x="0px" y="0px"
	 width="259.333px" height="58.667px" viewBox="0 0 259.333 58.667" enable-background="new 0 0 259.333 58.667"
	 xml:space="preserve">
<g>
	<path fill="#B3B3B3" d="M11.678,22.557c-1.037,0-1.933-0.378-2.619-1.064c-0.981-0.98-0.967-2.087-0.967-4.006
		c0-1.919-0.014-3.026,0.967-4.007c0.686-0.687,1.583-1.064,2.619-1.064c1.835,0,3.208,1.079,3.558,3.067h-1.541
		c-0.238-1.008-0.911-1.708-2.017-1.708c-0.588,0-1.121,0.224-1.471,0.602c-0.49,0.532-0.603,1.106-0.603,3.11
		c0,2.003,0.112,2.577,0.603,3.109c0.35,0.378,0.882,0.603,1.471,0.603c1.106,0,1.793-0.7,2.031-1.709h1.527
		C14.899,21.479,13.485,22.557,11.678,22.557z"/>
	<path fill="#B3B3B3" d="M20.988,17.038c-0.322-0.322-0.575-0.477-1.065-0.477c-0.771,0-1.415,0.616-1.415,1.597v4.314H17.08V15.37
		h1.4v0.771c0.364-0.505,1.093-0.854,1.891-0.854c0.687,0,1.205,0.182,1.695,0.672L20.988,17.038z"/>
	<path fill="#B3B3B3" d="M23.828,19.335c0,1.219,0.645,1.989,1.807,1.989c0.798,0,1.219-0.225,1.723-0.729l0.91,0.854
		c-0.729,0.729-1.415,1.106-2.661,1.106c-1.779,0-3.194-0.938-3.194-3.642c0-2.298,1.19-3.628,3.012-3.628
		c1.905,0,3.011,1.4,3.011,3.418v0.63h-4.608V19.335z M26.826,17.374c-0.224-0.532-0.728-0.896-1.4-0.896
		c-0.672,0-1.191,0.364-1.415,0.896c-0.14,0.322-0.168,0.532-0.182,0.967h3.194C27.008,17.906,26.966,17.696,26.826,17.374z"/>
	<path fill="#B3B3B3" d="M34.147,22.473v-0.645c-0.518,0.519-1.008,0.729-1.891,0.729c-0.883,0-1.471-0.21-1.905-0.645
		c-0.364-0.378-0.56-0.924-0.56-1.526c0-1.19,0.826-2.045,2.451-2.045h1.877v-0.505c0-0.896-0.448-1.33-1.555-1.33
		c-0.785,0-1.163,0.182-1.555,0.686l-0.938-0.882c0.672-0.784,1.373-1.022,2.549-1.022c1.947,0,2.928,0.826,2.928,2.437v4.749
		L34.147,22.473L34.147,22.473z M34.12,19.335h-1.667c-0.84,0-1.274,0.378-1.274,1.022s0.406,1.009,1.303,1.009
		c0.546,0,0.952-0.042,1.331-0.406c0.21-0.21,0.308-0.547,0.308-1.051L34.12,19.335L34.12,19.335z"/>
	<path fill="#B3B3B3" d="M39.858,22.473c-1.331,0-1.947-0.952-1.947-1.975V16.59h-0.813v-1.093h0.813V13.34h1.429v2.157h1.373v1.093
		H39.34v3.838c0,0.521,0.252,0.826,0.785,0.826h0.588v1.219H39.858z"/>
	<path fill="#B3B3B3" d="M43.512,19.335c0,1.219,0.645,1.989,1.807,1.989c0.798,0,1.219-0.225,1.723-0.729l0.911,0.854
		c-0.729,0.729-1.415,1.106-2.661,1.106c-1.779,0-3.194-0.938-3.194-3.642c0-2.298,1.19-3.628,3.012-3.628
		c1.905,0,3.011,1.4,3.011,3.418v0.63h-4.609V19.335z M46.51,17.374c-0.224-0.532-0.728-0.896-1.4-0.896
		c-0.672,0-1.191,0.364-1.415,0.896c-0.14,0.322-0.168,0.532-0.182,0.967h3.194C46.692,17.906,46.65,17.696,46.51,17.374z"/>
	<path fill="#B3B3B3" d="M55.665,22.557c-1.163,0-2.143-0.196-2.983-1.022l0.938-0.938c0.574,0.588,1.345,0.742,2.045,0.742
		c0.869,0,1.555-0.308,1.555-0.98c0-0.477-0.266-0.784-0.953-0.841l-1.135-0.098c-1.331-0.112-2.101-0.714-2.101-1.961
		c0-1.387,1.191-2.171,2.676-2.171c1.064,0,1.975,0.224,2.633,0.798l-0.896,0.911c-0.448-0.379-1.079-0.519-1.751-0.519
		c-0.854,0-1.289,0.378-1.289,0.91c0,0.421,0.224,0.742,0.98,0.813l1.121,0.099c1.331,0.111,2.115,0.742,2.115,2.003
		C58.62,21.786,57.36,22.557,55.665,22.557z"/>
	<path fill="#B3B3B3" d="M65.102,21.716c-0.462,0.477-1.163,0.841-2.129,0.841c-0.966,0-1.653-0.364-2.115-0.841
		c-0.672-0.7-0.84-1.597-0.84-2.801c0-1.191,0.168-2.088,0.84-2.788c0.462-0.476,1.149-0.84,2.115-0.84
		c0.967,0,1.667,0.364,2.129,0.84c0.672,0.7,0.84,1.597,0.84,2.788C65.942,20.119,65.774,21.016,65.102,21.716z M64.023,16.968
		c-0.266-0.267-0.63-0.406-1.051-0.406c-0.42,0-0.771,0.14-1.037,0.406c-0.434,0.435-0.49,1.177-0.49,1.947s0.056,1.513,0.49,1.946
		c0.266,0.267,0.617,0.421,1.037,0.421s0.785-0.154,1.051-0.421c0.434-0.434,0.49-1.176,0.49-1.946S64.458,17.402,64.023,16.968z"/>
	<path fill="#B3B3B3" d="M76.528,22.473v-4.328c0-1.106-0.63-1.583-1.429-1.583c-0.77,0-1.471,0.49-1.471,1.513v4.398h-1.429v-4.328
		c0-1.106-0.63-1.583-1.429-1.583s-1.471,0.49-1.471,1.583v4.328H67.87v-7.102h1.4v0.714c0.477-0.518,1.177-0.798,1.891-0.798
		c0.883,0,1.569,0.35,2.017,1.036c0.574-0.7,1.289-1.036,2.228-1.036c0.728,0,1.373,0.238,1.793,0.644
		c0.546,0.533,0.756,1.205,0.756,2.004v4.538H76.528z"/>
	<path fill="#B3B3B3" d="M81.2,19.335c0,1.219,0.645,1.989,1.807,1.989c0.798,0,1.219-0.225,1.723-0.729l0.911,0.854
		c-0.729,0.729-1.415,1.106-2.661,1.106c-1.779,0-3.194-0.938-3.194-3.642c0-2.298,1.19-3.628,3.012-3.628
		c1.905,0,3.011,1.4,3.011,3.418v0.63H81.2V19.335z M84.197,17.374c-0.224-0.532-0.728-0.896-1.4-0.896
		c-0.672,0-1.191,0.364-1.415,0.896c-0.14,0.322-0.168,0.532-0.182,0.967h3.194C84.379,17.906,84.337,17.696,84.197,17.374z"/>
	<path fill="#B3B3B3" d="M89.81,22.473c-1.33,0-1.947-0.952-1.947-1.975V16.59H87.05v-1.093h0.813V13.34h1.429v2.157h1.372v1.093
		h-1.372v3.838c0,0.521,0.252,0.826,0.784,0.826h0.588v1.219H89.81z"/>
	<path fill="#B3B3B3" d="M96.782,22.473v-4.356c0-1.078-0.63-1.555-1.429-1.555c-0.798,0-1.442,0.49-1.442,1.555v4.356h-1.429
		v-9.974h1.429v3.586c0.49-0.532,1.135-0.798,1.835-0.798c1.583,0,2.465,1.064,2.465,2.605v4.58L96.782,22.473L96.782,22.473z"/>
	<path fill="#B3B3B3" d="M100.365,13.97v-1.513h1.513v1.513H100.365z M100.407,22.473v-7.102h1.429v7.102H100.407z"/>
	<path fill="#B3B3B3" d="M108.431,22.473v-4.328c0-1.106-0.63-1.583-1.429-1.583s-1.471,0.49-1.471,1.583v4.328h-1.429v-7.102h1.4
		v0.714c0.49-0.532,1.177-0.798,1.892-0.798c0.729,0,1.33,0.238,1.751,0.644c0.546,0.533,0.714,1.205,0.714,2.004v4.538H108.431z"/>
	<path fill="#B3B3B3" d="M114.436,25.429c-1.078,0-1.765-0.253-2.507-0.938l0.91-0.911c0.448,0.42,0.841,0.631,1.541,0.631
		c1.204,0,1.667-0.854,1.667-1.808v-0.91c-0.519,0.616-1.106,0.813-1.835,0.813c-0.715,0-1.303-0.238-1.695-0.631
		c-0.687-0.686-0.798-1.681-0.798-2.885c0-1.205,0.111-2.199,0.798-2.886c0.393-0.393,0.995-0.616,1.709-0.616
		c0.757,0,1.331,0.195,1.863,0.84v-0.756h1.387v7.06C117.476,24.168,116.327,25.429,114.436,25.429z M114.604,16.562
		c-1.288,0-1.456,1.106-1.456,2.228c0,1.12,0.168,2.227,1.456,2.227c1.289,0,1.443-1.106,1.443-2.227
		C116.047,17.668,115.893,16.562,114.604,16.562z"/>
	<path fill="#B3B3B3" d="M127.429,22.473v-4.328c0-1.106-0.631-1.583-1.43-1.583s-1.471,0.49-1.471,1.583v4.328H123.1v-7.102h1.401
		v0.714c0.49-0.532,1.176-0.798,1.891-0.798c0.729,0,1.33,0.238,1.752,0.644c0.545,0.533,0.713,1.205,0.713,2.004v4.538H127.429z"/>
	<path fill="#B3B3B3" d="M132.103,19.335c0,1.219,0.646,1.989,1.808,1.989c0.799,0,1.219-0.225,1.723-0.729l0.912,0.854
		c-0.729,0.729-1.416,1.106-2.662,1.106c-1.778,0-3.192-0.938-3.192-3.642c0-2.298,1.188-3.628,3.013-3.628
		c1.903,0,3.012,1.4,3.012,3.418v0.63h-4.61v0.002H132.103z M135.101,17.374c-0.226-0.532-0.729-0.896-1.399-0.896
		c-0.675,0-1.19,0.364-1.416,0.896c-0.14,0.322-0.168,0.532-0.183,0.967h3.192C135.284,17.906,135.243,17.696,135.101,17.374z"/>
	<path fill="#B3B3B3" d="M145.447,22.473h-1.219l-1.666-4.959l-1.651,4.959h-1.231l-2.199-7.102h1.513l1.373,5l1.651-5h1.106l1.64,5
		l1.373-5h1.526L145.447,22.473z"/>
	<path fill="#B3B3B3" d="M153.915,16.59v5.883h-1.429V16.59h-0.813v-1.093h0.813v-1.093c0-1.022,0.615-1.975,1.947-1.975h0.896
		v1.218h-0.631c-0.531,0-0.785,0.309-0.785,0.827v1.022h1.416v1.093L153.915,16.59L153.915,16.59z"/>
	<path fill="#B3B3B3" d="M161.366,21.716c-0.464,0.477-1.162,0.841-2.13,0.841c-0.967,0-1.651-0.364-2.114-0.841
		c-0.672-0.7-0.84-1.597-0.84-2.801c0-1.191,0.168-2.088,0.84-2.788c0.463-0.476,1.147-0.84,2.114-0.84
		c0.968,0,1.666,0.364,2.13,0.84c0.672,0.7,0.84,1.597,0.84,2.788C162.206,20.119,162.038,21.016,161.366,21.716z M160.288,16.968
		c-0.269-0.267-0.631-0.406-1.052-0.406c-0.42,0-0.771,0.14-1.036,0.406c-0.435,0.435-0.49,1.177-0.49,1.947s0.058,1.513,0.49,1.946
		c0.266,0.267,0.616,0.421,1.036,0.421c0.421,0,0.783-0.154,1.052-0.421c0.435-0.434,0.489-1.176,0.489-1.946
		S160.72,17.402,160.288,16.968z"/>
	<path fill="#B3B3B3" d="M168.042,17.038c-0.32-0.322-0.574-0.477-1.063-0.477c-0.771,0-1.416,0.616-1.416,1.597v4.314h-1.43V15.37
		h1.4v0.771c0.363-0.505,1.092-0.854,1.891-0.854c0.688,0,1.205,0.182,1.695,0.672L168.042,17.038z"/>
	<path fill="#B3B3B3" d="M175.868,23.888c-0.142,0.392-0.31,0.672-0.519,0.882c-0.394,0.393-0.912,0.519-1.457,0.519h-0.574V24
		h0.363c0.604,0,0.813-0.182,1.022-0.756l0.394-1.106l-2.479-6.766h1.514l1.693,5l1.653-5h1.524L175.868,23.888z"/>
	<path fill="#B3B3B3" d="M184.799,21.716c-0.463,0.477-1.161,0.841-2.129,0.841c-0.967,0-1.651-0.364-2.114-0.841
		c-0.673-0.7-0.841-1.597-0.841-2.801c0-1.191,0.168-2.088,0.841-2.788c0.463-0.476,1.147-0.84,2.114-0.84
		c0.968,0,1.666,0.364,2.129,0.84c0.673,0.7,0.841,1.597,0.841,2.788C185.64,20.119,185.472,21.016,184.799,21.716z M183.722,16.968
		c-0.269-0.267-0.632-0.406-1.052-0.406s-0.771,0.14-1.037,0.406c-0.434,0.435-0.489,1.177-0.489,1.947s0.058,1.513,0.489,1.946
		c0.267,0.267,0.617,0.421,1.037,0.421s0.783-0.154,1.052-0.421c0.435-0.434,0.489-1.176,0.489-1.946S184.157,17.402,183.722,16.968
		z"/>
	<path fill="#B3B3B3" d="M191.855,22.473v-0.715c-0.489,0.533-1.176,0.799-1.892,0.799c-0.729,0-1.33-0.238-1.75-0.645
		c-0.547-0.532-0.715-1.204-0.715-2.003v-4.538h1.428v4.328c0,1.106,0.632,1.583,1.431,1.583s1.472-0.49,1.472-1.583v-4.328h1.428
		v7.102H191.855z"/>
	<path fill="#B3B3B3" d="M199.429,17.038c-0.322-0.322-0.574-0.477-1.063-0.477c-0.771,0-1.414,0.616-1.414,1.597v4.314h-1.431
		V15.37h1.399v0.771c0.365-0.505,1.095-0.854,1.894-0.854c0.687,0,1.203,0.182,1.692,0.672L199.429,17.038z"/>
	<path fill="#B3B3B3" d="M210.042,21.927c-0.393,0.392-1.01,0.63-1.723,0.63c-0.758,0-1.346-0.196-1.863-0.813v3.6h-1.43v-9.973h1.4
		v0.756c0.533-0.645,1.107-0.84,1.877-0.84c0.715,0,1.346,0.238,1.738,0.63c0.713,0.715,0.797,1.919,0.797,2.998
		C210.838,19.993,210.754,21.212,210.042,21.927z M207.941,16.562c-1.289,0-1.483,1.093-1.483,2.354s0.194,2.367,1.483,2.367
		s1.472-1.106,1.472-2.367S209.23,16.562,207.941,16.562z"/>
	<path fill="#B3B3B3" d="M216.676,17.038c-0.321-0.322-0.573-0.477-1.063-0.477c-0.771,0-1.416,0.616-1.416,1.597v4.314h-1.428
		V15.37h1.399v0.771c0.363-0.505,1.093-0.854,1.892-0.854c0.687,0,1.205,0.182,1.694,0.672L216.676,17.038z"/>
	<path fill="#B3B3B3" d="M223.213,21.716c-0.461,0.477-1.162,0.841-2.129,0.841s-1.651-0.364-2.114-0.841
		c-0.673-0.7-0.841-1.597-0.841-2.801c0-1.191,0.168-2.088,0.841-2.788c0.463-0.476,1.147-0.84,2.114-0.84s1.668,0.364,2.129,0.84
		c0.675,0.7,0.843,1.597,0.843,2.788C224.056,20.119,223.888,21.016,223.213,21.716z M222.136,16.968
		c-0.267-0.267-0.632-0.406-1.052-0.406s-0.771,0.14-1.035,0.406c-0.437,0.435-0.489,1.177-0.489,1.947s0.056,1.513,0.489,1.946
		c0.267,0.267,0.615,0.421,1.035,0.421s0.785-0.154,1.052-0.421c0.436-0.434,0.489-1.176,0.489-1.946S222.572,17.402,222.136,16.968
		z"/>
	<path fill="#B3B3B3" d="M230.06,22.473v-0.757c-0.531,0.645-1.104,0.841-1.877,0.841c-0.716,0-1.345-0.238-1.736-0.63
		c-0.715-0.715-0.799-1.934-0.799-3.012c0-1.079,0.084-2.283,0.799-2.998c0.394-0.392,1.009-0.63,1.724-0.63
		c0.756,0,1.345,0.182,1.863,0.798v-3.586h1.428v9.974H230.06z M228.562,16.562c-1.289,0-1.483,1.093-1.483,2.354
		s0.194,2.367,1.483,2.367s1.472-1.106,1.472-2.367S229.851,16.562,228.562,16.562z"/>
	<path fill="#B3B3B3" d="M238.013,22.473v-0.715c-0.49,0.533-1.179,0.799-1.892,0.799c-0.729,0-1.332-0.238-1.752-0.645
		c-0.548-0.532-0.716-1.204-0.716-2.003v-4.538h1.431v4.328c0,1.106,0.631,1.583,1.429,1.583c0.799,0,1.471-0.49,1.471-1.583v-4.328
		h1.431v7.102H238.013z"/>
	<path fill="#B3B3B3" d="M244.48,22.557c-1.599,0-3.166-0.98-3.166-3.642s1.567-3.628,3.166-3.628c0.979,0,1.666,0.28,2.34,0.994
		l-0.979,0.952c-0.448-0.49-0.799-0.672-1.358-0.672c-0.547,0-1.008,0.224-1.315,0.63c-0.31,0.393-0.42,0.896-0.42,1.724
		c0,0.826,0.11,1.345,0.42,1.736c0.31,0.406,0.771,0.631,1.315,0.631c0.562,0,0.91-0.183,1.358-0.673l0.979,0.938
		C246.146,22.263,245.459,22.557,244.48,22.557z"/>
	<path fill="#B3B3B3" d="M250.583,22.473c-1.33,0-1.947-0.952-1.947-1.975V16.59h-0.813v-1.093h0.813V13.34h1.432v2.157h1.373v1.093
		h-1.373v3.838c0,0.521,0.252,0.826,0.783,0.826h0.59v1.219H250.583z"/>
</g>
<g>
	<path fill="#97CC97" d="M69.483,49.087c-2.031,0-3.572-1.387-3.572-3.444v-6.612h1.513v6.541c0,1.33,0.812,2.157,2.059,2.157
		s2.073-0.827,2.073-2.157v-6.541h1.513v6.611C73.069,47.701,71.514,49.087,69.483,49.087z"/>
	<path fill="#97CC97" d="M80.418,49.003l-2.171-3.823l-2.157,3.823h-1.737l3.082-5.111l-2.885-4.861h1.737l1.961,3.572l1.975-3.572
		h1.737l-2.885,4.861l3.096,5.111H80.418z"/>
	<path fill="#97CC97" d="M86.603,45.783v-1.332h4.09v1.332H86.603z"/>
	<path fill="#97CC97" d="M99.708,49.087c-2.031,0-3.572-1.387-3.572-3.444v-6.612h1.513v6.541c0,1.33,0.813,2.157,2.059,2.157
		s2.073-0.827,2.073-2.157v-6.541h1.513v6.611C103.294,47.701,101.739,49.087,99.708,49.087z"/>
	<path fill="#97CC97" d="M105.741,49.003v-9.973h1.513v9.973H105.741z"/>
	<path fill="#97CC97" d="M116.646,50.041h-1.373l3.992-12.047h1.373L116.646,50.041z"/>
	<path fill="#97CC97" d="M136.752,49.003h-1.315l-2.03-6.989l-2.018,6.989h-1.317l-2.604-9.973h1.597l1.736,7.129l2.004-7.129h1.219
		l2.003,7.129l1.737-7.129h1.596L136.752,49.003z"/>
	<path fill="#97CC97" d="M141.131,45.867c0,1.219,0.646,1.988,1.808,1.988c0.799,0,1.22-0.225,1.724-0.729l0.91,0.854
		c-0.73,0.729-1.414,1.105-2.66,1.105c-1.779,0-3.195-0.938-3.195-3.643c0-2.298,1.191-3.628,3.014-3.628
		c1.904,0,3.012,1.399,3.012,3.418v0.632h-4.609v0.002H141.131z M144.129,43.906c-0.226-0.533-0.729-0.896-1.4-0.896
		s-1.189,0.363-1.415,0.896c-0.142,0.321-0.168,0.531-0.183,0.967h3.193C144.312,44.438,144.269,44.228,144.129,43.906z"/>
	<path fill="#97CC97" d="M152.642,48.458c-0.394,0.392-1.021,0.629-1.735,0.629c-0.771,0-1.347-0.195-1.878-0.84v0.756h-1.399
		v-9.973h1.429v3.586c0.521-0.617,1.106-0.8,1.862-0.8c0.715,0,1.33,0.238,1.724,0.632c0.715,0.715,0.799,1.918,0.799,2.996
		C153.441,46.524,153.357,47.744,152.642,48.458z M150.542,43.093c-1.287,0-1.483,1.093-1.483,2.354
		c0,1.262,0.196,2.367,1.483,2.367c1.289,0,1.472-1.105,1.472-2.367C152.012,44.186,151.831,43.093,150.542,43.093z"/>
	<path fill="#97CC97" d="M158.534,45.783v-1.332h4.09v1.332H158.534z"/>
	<path fill="#97CC97" d="M173.952,49.003l-0.688-2.002h-3.938l-0.688,2.002h-1.609l3.654-9.973h1.219l3.656,9.973H173.952z
		 M171.331,41.287l-1.556,4.426h3.067L171.331,41.287z"/>
	<path fill="#97CC97" d="M181.818,48.458c-0.394,0.392-1.01,0.629-1.723,0.629c-0.759,0-1.347-0.195-1.863-0.813v3.601h-1.431
		v-9.974h1.4v0.757c0.532-0.646,1.106-0.841,1.877-0.841c0.715,0,1.346,0.238,1.737,0.632c0.713,0.715,0.797,1.918,0.797,2.996
		C182.616,46.524,182.532,47.744,181.818,48.458z M179.715,43.093c-1.289,0-1.483,1.093-1.483,2.354
		c0,1.262,0.194,2.367,1.483,2.367s1.472-1.105,1.472-2.367C181.187,44.186,181.004,43.093,179.715,43.093z"/>
	<path fill="#97CC97" d="M189.56,48.458c-0.394,0.392-1.011,0.629-1.724,0.629c-0.758,0-1.346-0.195-1.862-0.813v3.601h-1.431
		v-9.974h1.399v0.757c0.533-0.646,1.106-0.841,1.877-0.841c0.716,0,1.347,0.238,1.738,0.632c0.713,0.715,0.797,1.918,0.797,2.996
		C190.357,46.524,190.273,47.744,189.56,48.458z M187.458,43.093c-1.289,0-1.482,1.093-1.482,2.354c0,1.262,0.193,2.367,1.482,2.367
		s1.473-1.105,1.473-2.367C188.929,44.186,188.749,43.093,187.458,43.093z"/>
</g>
</svg>
